<svg xmlns="http://www.w3.org/2000/svg" width="79.931" height="74.588" viewBox="0 0 79.931 74.588"><g transform="translate(11.689 -102.189) rotate(30)"><g transform="translate(61.489 70.071)"><path d="M62.6,159.453l-.257,1.217-.852-.18.708-3.347.852.18-.258,1.217,3.408.721-.193.913Z" transform="translate(-61.489 -130.686)" fill="none" stroke="#000" stroke-width="0.5"/><path d="M66.34,143.692a2.273,2.273,0,1,1,1.338,2.994A2.3,2.3,0,0,1,66.34,143.692Zm3.455,1.242a1.4,1.4,0,1,0-1.791.844A1.394,1.394,0,0,0,69.795,144.933Z" transform="translate(-64.762 -120.215)" fill="none" stroke="#000" stroke-width="0.5"/><path d="M71.583,126.559l.416-.73,2.362-.372-.881-2.222.417-.73,3.783,2.159-.462.811-2.486-1.419.82,2.08-2.207.352,2.486,1.419-.462.811Z" transform="translate(-68.516 -106.573)" fill="none" stroke="#000" stroke-width="0.5"/><path d="M85.365,109.707l-.8.951L83.9,110.1l2.2-2.617.666.561-.8.951,2.664,2.245-.6.714Z" transform="translate(-77.088 -96.114)" fill="none" stroke="#000" stroke-width="0.5"/><path d="M93.649,100.829l1.416-1.31a1.4,1.4,0,0,1,2.112.038,1.385,1.385,0,0,1,.415,1,1.127,1.127,0,0,1-.1.445l1.761.574-.754.7-1.543-.522-.639.591.972,1.05-.685.634Zm2.787.218a.591.591,0,0,0-.8-.868l-.708.655.8.868Z" transform="translate(-83.877 -90.252)" fill="none" stroke="#000" stroke-width="0.5"/><path d="M105.544,90.1l2.643-1.865.5.712-1.88,1.327.484.686,1.474-1.04.484.686-1.474,1.04.538.762,1.931-1.363.5.712-2.693,1.9Z" transform="translate(-92.158 -82.718)" fill="none" stroke="#000" stroke-width="0.5"/><path d="M118.116,81.783l.748-.382,3.115,1.45-1.23-2.411.832-.424,1.979,3.88-.748.382-3.115-1.45,1.23,2.411-.831.424Z" transform="translate(-100.909 -76.994)" fill="none" stroke="#000" stroke-width="0.5"/><path d="M134.469,76.528l1.506-.5a2.181,2.181,0,1,1,1.37,4.135l-1.506.5Zm2.6,2.809a1.307,1.307,0,1,0-.822-2.481l-.62.205.822,2.481Z" transform="translate(-112.293 -74.126)" fill="none" stroke="#000" stroke-width="0.5"/><path d="M150.481,72.741l.912-.2.923,4.256-.912.2Z" transform="translate(-123.44 -71.792)" fill="none" stroke="#000" stroke-width="0.5"/><path d="M158.263,70.581l.835-.087,2.385,2.472-.281-2.692.928-.1.452,4.332-.836.087-2.385-2.472.281,2.692-.928.1Z" transform="translate(-128.857 -70.145)" fill="none" stroke="#000" stroke-width="0.5"/><path d="M177.64,72.133l1.74.087-.082,1.647a2.489,2.489,0,0,1-1.937.744,2.273,2.273,0,1,1,.226-4.536,2.33,2.33,0,0,1,1.79.961l-.652.59a1.862,1.862,0,0,0-.3-.327,1.463,1.463,0,0,0-.879-.355,1.4,1.4,0,1,0-.139,2.8,1.437,1.437,0,0,0,.723-.132,1.043,1.043,0,0,0,.257-.161l.026-.528-.808-.04Z" transform="translate(-140.585 -70.071)" fill="none" stroke="#000" stroke-width="0.5"/><path d="M195.366,75.641a1.24,1.24,0,0,0,.208.29,1.342,1.342,0,0,0,.689.393c.486.11.746-.054.809-.327.164-.722-2.033-.884-1.7-2.364a1.4,1.4,0,0,1,1.83-.892,2.092,2.092,0,0,1,1,.534,1.948,1.948,0,0,1,.293.367l-.745.469a1.556,1.556,0,0,0-.171-.23,1.075,1.075,0,0,0-.535-.313c-.461-.1-.679.037-.734.28-.164.722,2.033.884,1.7,2.364a1.462,1.462,0,0,1-1.9.939,2.356,2.356,0,0,1-1.156-.614,1.644,1.644,0,0,1-.33-.426Z" transform="translate(-154.168 -71.89)" fill="none" stroke="#000" stroke-width="0.5"/><path d="M210.046,76.024l-1.176-.408.286-.823,3.234,1.122-.286.823-1.176-.408-1.142,3.292-.882-.306Z" transform="translate(-164.087 -73.358)" fill="none" stroke="#000" stroke-width="0.5"/><path d="M222.074,81.933a2.273,2.273,0,1,1-3.137.953A2.3,2.3,0,0,1,222.074,81.933Zm-1.663,3.273a1.4,1.4,0,1,0-.614-1.883A1.394,1.394,0,0,0,220.411,85.206Z" transform="translate(-170.927 -78.139)" fill="none" stroke="#000" stroke-width="0.5"/><path d="M234.49,88.82l1.568,1.122a1.4,1.4,0,0,1,.389,2.075,1.384,1.384,0,0,1-.893.607,1.128,1.128,0,0,1-.455,0l-.207,1.84-.835-.6.2-1.616-.708-.507-.832,1.163-.759-.543Zm.349,2.773a.591.591,0,0,0,.688-.961l-.784-.561-.688.961Z" transform="translate(-180.159 -83.123)" fill="none" stroke="#000" stroke-width="0.5"/><path d="M246.162,98.34l2.361,2.212-.6.636-1.68-1.574-.574.613,1.317,1.234-.574.613L245.1,100.84l-.638.681,1.725,1.617-.6.636-2.406-2.255Z" transform="translate(-187.975 -89.75)" fill="none" stroke="#000" stroke-width="0.5"/><path d="M259.269,116.007l1.3,1.632-.609.484-1.3-1.632Z" transform="translate(-198.748 -102.049)" fill="none" stroke="#000" stroke-width="0.5"/><path d="M267.02,123.878l-.638-1.068.748-.447,1.754,2.939-.748.446-.638-1.068-2.992,1.786-.478-.8Z" transform="translate(-202.485 -106.474)" fill="none" stroke="#000" stroke-width="0.5"/><path d="M274.531,137.826a2.272,2.272,0,1,1-3.015-1.287A2.3,2.3,0,0,1,274.531,137.826Zm-3.378,1.436a1.4,1.4,0,1,0,.741-1.836A1.394,1.394,0,0,0,271.153,139.262Z" transform="translate(-206.747 -116.218)" fill="none" stroke="#000" stroke-width="0.5"/><path d="M279.056,152.924l.19.818-1.48,1.878,2.157,1.032.191.818-4.243.987-.211-.909,2.788-.649-2.015-.969,1.38-1.758-2.788.649-.212-.909Z" transform="translate(-209.993 -127.749)" fill="none" stroke="#000" stroke-width="0.5"/><path d="M282.5,177.07l-.058-1.243.871-.041.159,3.42-.87.04L282.546,178l-3.481.162-.043-.933Z" transform="translate(-212.922 -143.664)" fill="none" stroke="#000" stroke-width="0.5"/><path d="M283.017,189.89l-.149,1.924a1.406,1.406,0,0,1-1.576,1.407,1.385,1.385,0,0,1-.982-.451,1.124,1.124,0,0,1-.232-.392l-1.683.775.079-1.024,1.487-.665.067-.869-1.427-.111.072-.931Zm-2.194,1.734a.591.591,0,1,0,1.179.091l.074-.961-1.179-.091Z" transform="translate(-212.486 -153.248)" fill="none" stroke="#000" stroke-width="0.5"/><path d="M280.691,204.369l-.672,3.165-.852-.181.479-2.252-.822-.175-.375,1.765-.822-.174.375-1.765-.913-.194-.491,2.313-.852-.181.685-3.226Z" transform="translate(-210.642 -162.932)" fill="none" stroke="#000" stroke-width="0.5"/><path d="M276.144,217.809l-.29.788-3.271,1.049,2.54.936-.323.876-4.087-1.506.29-.788,3.271-1.049-2.539-.936.323-.876Z" transform="translate(-207.139 -171.869)" fill="none" stroke="#000" stroke-width="0.5"/><path d="M270.686,233.291l-.768,1.389a2.181,2.181,0,1,1-3.812-2.107l.768-1.389Zm-3.817-.3a1.307,1.307,0,1,0,2.287,1.264l.316-.572-2.287-1.264Z" transform="translate(-203.711 -182.229)" fill="none" stroke="#000" stroke-width="0.5"/><path d="M264,246.777l-.535.765-3.57-2.5.535-.765Z" transform="translate(-199.606 -191.345)" fill="none" stroke="#000" stroke-width="0.5"/><path d="M255.449,252.454l-.554.632-3.43-.193,2.035,1.784-.615.7-3.276-2.871.554-.632,3.43.193-2.036-1.784.615-.7Z" transform="translate(-192.448 -195.037)" fill="none" stroke="#000" stroke-width="0.5"/><path d="M241.251,266.279l-1.336,1.118-1.058-1.264a2.487,2.487,0,0,1,.916-1.862,2.273,2.273,0,1,1,2.916,3.483,2.332,2.332,0,0,1-1.967.51l.077-.876a1.866,1.866,0,0,0,.443.035,1.464,1.464,0,0,0,.887-.337,1.4,1.4,0,1,0-1.8-2.146,1.443,1.443,0,0,0-.441.588,1.048,1.048,0,0,0-.079.293l.34.406.62-.519Z" transform="translate(-184.962 -204.861)" fill="none" stroke="#000" stroke-width="0.5"/><path d="M227.256,275.208a1.242,1.242,0,0,0-.35-.071,1.339,1.339,0,0,0-.772.18c-.431.249-.511.546-.371.789.37.641,2.091-.733,2.85.582a1.4,1.4,0,0,1-.737,1.9,2.087,2.087,0,0,1-1.1.289,1.936,1.936,0,0,1-.464-.07l.228-.85a1.561,1.561,0,0,0,.282.053,1.078,1.078,0,0,0,.605-.134c.41-.237.472-.488.348-.7-.37-.641-2.091.733-2.85-.582a1.462,1.462,0,0,1,.759-1.983,2.354,2.354,0,0,1,1.265-.335,1.643,1.643,0,0,1,.532.088Z" transform="translate(-175.153 -212.222)" fill="none" stroke="#000" stroke-width="0.5"/><path d="M218.724,283.308l1.139-.5.349.8-3.133,1.372-.349-.8,1.139-.5-1.4-3.19.854-.374Z" transform="translate(-169.38 -216.294)" fill="none" stroke="#000" stroke-width="0.5"/><path d="M202,289.27a2.273,2.273,0,1,1,1.655-2.83A2.3,2.3,0,0,1,202,289.27Zm-1-3.532a1.4,1.4,0,1,0,1.729.965A1.394,1.394,0,0,0,201,285.738Z" transform="translate(-157.231 -219.555)" fill="none" stroke="#000" stroke-width="0.5"/><path d="M187.41,292.14l-1.914.241a1.406,1.406,0,0,1-1.695-1.261,1.385,1.385,0,0,1,.244-1.053,1.12,1.12,0,0,1,.338-.306l-1.1-1.493,1.019-.128.95,1.323.864-.108-.178-1.42.926-.116Zm-2.139-1.8a.591.591,0,0,0,.147,1.173l.957-.12-.147-1.173Z" transform="translate(-146.277 -221.654)" fill="none" stroke="#000" stroke-width="0.5"/><path d="M173.534,293.612l-3.235-.045.012-.871,2.3.032.012-.84-1.8-.025.012-.84,1.8.025.013-.933-2.364-.033.012-.871,3.3.046Z" transform="translate(-137.227 -222.624)" fill="none" stroke="#000" stroke-width="0.5"/></g><g transform="translate(65.392 102.61)"><path d="M101.726,211.185A31.159,31.159,0,0,1,74.333,180.34a31.654,31.654,0,0,1,.153-3.185l.076.007a31.5,31.5,0,0,0-.153,3.177,31.084,31.084,0,0,0,27.326,30.77Z" transform="translate(-74.333 -177.155)"/></g></g></svg>